<svg width="86" height="24" viewBox="0 0 86 24" fill="none" xmlns="http://www.w3.org/2000/svg">
<g clip-path="url(#clip0_12_1309)">
<path d="M9.31334 3.97273V10.7425H2.99819V3.97273H0V20.1328H2.99819V13.5829H9.31334V20.1328H12.3115V3.97273H9.31334Z" fill="#33475B"/>
<path d="M21.9067 14.909C21.9067 15.5567 21.6454 16.1778 21.1803 16.6357C20.7151 17.0937 20.0842 17.351 19.4264 17.351C18.7685 17.351 18.1376 17.0937 17.6725 16.6357C17.2073 16.1778 16.946 15.5567 16.946 14.909V7.98743H14.1021V14.909C14.1021 16.2979 14.6625 17.6299 15.66 18.612C16.6575 19.5941 18.0105 20.1458 19.4212 20.1458C20.832 20.1458 22.1849 19.5941 23.1825 18.612C24.18 17.6299 24.7404 16.2979 24.7404 14.909V7.98743H21.9067V14.909Z" fill="#33475B"/>
<path d="M42.9779 8.70042C42.9779 7.28168 43.9312 6.83191 44.9757 6.83191C45.8174 6.83191 46.9294 7.46246 47.6566 8.22751L49.5192 6.06686C48.5894 4.82889 46.7032 3.97273 45.1593 3.97273C42.0744 3.97273 39.8431 5.75158 39.8431 8.70042C39.8431 14.1715 46.6356 12.436 46.6356 15.4977C46.6356 16.442 45.7043 17.2765 44.6378 17.2765C42.9558 17.2765 42.4108 16.4666 41.6381 15.6105L39.5713 17.7263C40.8934 19.3243 42.5239 20.1357 44.4777 20.1357C47.4083 20.1357 49.766 18.3351 49.766 15.5208C49.766 9.44667 42.9735 11.334 42.9735 8.70042" fill="#33475B"/>
<path d="M84.9995 17.5513C83.319 17.5513 82.8416 16.8354 82.8416 15.7392V10.8871H85.4535V8.42853H82.8416V5.18466L79.958 6.45878V16.3422C79.958 18.8702 81.7296 20.1443 84.1593 20.1443C84.5403 20.1512 84.9212 20.1212 85.2963 20.0547L85.9999 17.505C85.6826 17.5267 85.3183 17.5484 84.9995 17.5484" fill="#33475B"/>
<path d="M32.7318 8.06844C31.323 8.06844 30.3403 8.47048 29.3899 9.38883V4.06964H26.5415V13.9285C26.5415 17.6193 29.2518 20.1473 32.297 20.1473C35.6756 20.1473 38.6474 17.5744 38.6474 14.1093C38.6474 10.6875 35.9121 8.06988 32.7318 8.06988V8.06844ZM32.7142 17.3257C32.075 17.3257 31.4502 17.1391 30.9187 16.7895C30.3872 16.4399 29.973 15.943 29.7284 15.3616C29.4838 14.7802 29.4198 14.1405 29.5445 13.5233C29.6692 12.9061 29.977 12.3392 30.429 11.8942C30.8809 11.4492 31.4568 11.1462 32.0837 11.0235C32.7106 10.9007 33.3604 10.9637 33.9509 11.2045C34.5414 11.4453 35.0462 11.8531 35.4013 12.3764C35.7564 12.8996 35.9459 13.5147 35.9459 14.144C35.9459 14.9878 35.6054 15.7971 34.9994 16.3938C34.3933 16.9905 33.5713 17.3257 32.7142 17.3257Z" fill="#33475B"/>
<path d="M63.6596 13.9618C63.6596 10.4909 60.6937 7.92383 57.3092 7.92383C54.264 7.92383 51.5537 10.4518 51.5537 14.1426V24.0072H54.4021V18.6808C55.351 19.5977 56.3352 20.0012 57.7425 20.0012C60.9229 20.0012 63.6581 17.385 63.6581 13.9618H63.6596ZM60.9625 13.9271C60.9625 14.5564 60.773 15.1715 60.4179 15.6947C60.0628 16.2179 59.558 16.6258 58.9675 16.8666C58.377 17.1074 57.7272 17.1704 57.1003 17.0476C56.4734 16.9249 55.8975 16.6218 55.4456 16.1769C54.9936 15.7319 54.6858 15.165 54.5611 14.5478C54.4364 13.9306 54.5004 13.2909 54.745 12.7095C54.9896 12.1281 55.4038 11.6312 55.9353 11.2816C56.4668 10.932 57.0916 10.7454 57.7308 10.7454C58.5879 10.7454 59.4099 11.0806 60.016 11.6773C60.622 12.274 60.9625 13.0832 60.9625 13.9271Z" fill="#33475B"/>
<path d="M72.8616 7.78788V4.97065C73.2398 4.79669 73.56 4.52056 73.785 4.1744C74.0099 3.82824 74.1304 3.4263 74.1323 3.01536V2.95028C74.1323 2.37494 73.9001 1.82316 73.4869 1.41634C73.0737 1.00951 72.5132 0.780954 71.9288 0.780954H71.8627C71.2783 0.780954 70.7179 1.00951 70.3046 1.41634C69.8914 1.82316 69.6593 2.37494 69.6593 2.95028V3.01536C69.6612 3.4263 69.7817 3.82824 70.0066 4.1744C70.2316 4.52056 70.5518 4.79669 70.9299 4.97065V7.78788C69.843 7.95159 68.8194 8.39512 67.9626 9.07357L60.1153 3.05586C60.1708 2.85741 60.2004 2.65281 60.2034 2.447C60.2043 1.96354 60.0595 1.49068 59.7874 1.08824C59.5153 0.685806 59.128 0.371862 58.6746 0.186123C58.2212 0.00038428 57.7221 -0.0488052 57.2403 0.0447766C56.7585 0.138358 56.3158 0.370507 55.968 0.711859C55.6203 1.05321 55.3831 1.48843 55.2867 1.96247C55.1902 2.43651 55.2387 2.92807 55.426 3.37497C55.6133 3.82188 55.9311 4.20405 56.339 4.47315C56.747 4.74226 57.2268 4.8862 57.7179 4.88677C58.1473 4.88488 58.5687 4.77218 58.9401 4.55992L66.6684 10.4793C65.974 11.5119 65.6117 12.7265 65.6287 13.9647C65.6457 15.203 66.0413 16.4075 66.7639 17.4211L64.4135 19.7351C64.2235 19.6753 64.0254 19.6437 63.8259 19.6411C63.4228 19.6414 63.0288 19.7593 62.6937 19.98C62.3586 20.2007 62.0975 20.5142 61.9434 20.8809C61.7892 21.2477 61.749 21.6512 61.8277 22.0404C61.9064 22.4297 62.1006 22.7872 62.3857 23.0679C62.6707 23.3485 63.0339 23.5397 63.4293 23.6172C63.8246 23.6947 64.2345 23.655 64.607 23.5033C64.9795 23.3515 65.298 23.0945 65.5221 22.7646C65.7463 22.4347 65.8661 22.0468 65.8664 21.6499C65.8638 21.4535 65.8316 21.2585 65.7709 21.0714L68.0963 18.782C68.8545 19.3565 69.7363 19.7525 70.674 19.9397C71.6117 20.1269 72.5805 20.1003 73.5061 19.8619C74.4318 19.6236 75.2897 19.1799 76.0143 18.5647C76.7389 17.9496 77.3108 17.1793 77.6864 16.3129C78.0619 15.4466 78.231 14.5071 78.1808 13.5664C78.1306 12.6257 77.8624 11.7089 77.3967 10.886C76.931 10.0632 76.2802 9.35615 75.4941 8.81915C74.7081 8.28214 73.8076 7.92938 72.8616 7.78788V7.78788ZM71.898 17.0524C71.2619 17.0518 70.6403 16.8656 70.1116 16.5173C69.583 16.169 69.1711 15.6742 68.928 15.0955C68.685 14.5168 68.6216 13.8802 68.7459 13.266C68.8703 12.6519 69.1767 12.0878 69.6266 11.6451C70.0765 11.2024 70.6496 10.9009 71.2735 10.7787C71.8974 10.6566 72.544 10.7193 73.1317 10.9589C73.7194 11.1985 74.2218 11.6042 74.5753 12.1248C74.9288 12.6454 75.1177 13.2575 75.118 13.8837C75.118 14.7237 74.779 15.5293 74.1757 16.1233C73.5724 16.7172 72.7541 17.0509 71.9009 17.0509" fill="#FF7A59"/>
</g>
<defs>
<clipPath id="clip0_12_1309">
<rect width="86" height="24" fill="white"/>
</clipPath>
</defs>
</svg>
