<svg width="49" height="50" viewBox="0 0 49 50" fill="none" xmlns="http://www.w3.org/2000/svg">
<rect x="24.042" y="0.958435" width="34" height="34" rx="6" transform="rotate(45 24.042 0.958435)" fill="#BBDEFB"/>
<path fill-rule="evenodd" clip-rule="evenodd" d="M19.3643 22.9628L17.6844 24.6427L23.0844 30.0427L35.0844 18.0427L33.4045 16.3628L23.0844 26.6226L19.3643 22.9628ZM33.8844 25.2427C33.8844 30.5226 29.5643 34.8427 24.2844 34.8427C19.0046 34.8427 14.6844 30.5226 14.6844 25.2427C14.6844 19.9628 19.0045 15.6427 24.2844 15.6427C25.1844 15.6427 26.0844 15.7628 26.9247 16.0028L28.7844 14.1427C27.4045 13.5427 25.9045 13.2427 24.2844 13.2427C17.6844 13.2427 12.2844 18.6427 12.2844 25.2427C12.2844 31.8427 17.6844 37.2427 24.2844 37.2427C30.8844 37.2427 36.2844 31.8427 36.2844 25.2427H33.8844Z" fill="#2196F3"/>
</svg>
