<svg width="49" height="49" viewBox="0 0 49 49" fill="none" xmlns="http://www.w3.org/2000/svg">
<rect x="24.0417" y="0.916809" width="34" height="34" rx="6" transform="rotate(45 24.0417 0.916809)" fill="#FBEABB"/>
<path fill-rule="evenodd" clip-rule="evenodd" d="M24 20.3586C25.366 20.3586 26.6554 20.8956 27.6306 21.8708C28.6058 22.846 29.1429 24.1354 29.1429 25.5014C29.1429 26.4454 28.906 27.3245 28.4387 28.1143C27.992 28.8695 27.3439 29.5091 26.5645 29.9639L25.7143 30.4601V31.4445V35.2442H22.2857V31.4445V30.4601L21.4355 29.9639C19.8451 29.0358 18.8571 27.3259 18.8571 25.5014C18.8571 24.1354 19.3942 22.8461 20.3694 21.8708C21.3446 20.8956 22.634 20.3586 24 20.3586ZM25.1428 12.9584C24.8002 12.9584 22.8572 12.9584 22.8572 12.9584V16.387H25.1428V12.9584ZM32.0569 15.844L30 17.9015L31.5999 19.5014L33.6573 17.4445L32.0569 15.844ZM15.9431 15.844L14.3426 17.4445L16.4001 19.5014L18 17.9015L15.9431 15.844ZM24 18.6443C20.2288 18.6443 17.1429 21.7302 17.1429 25.5014C17.1429 28.016 18.5145 30.2442 20.5714 31.4445V36.9584H27.4286V31.4445C29.4855 30.2442 30.8571 28.0728 30.8571 25.5014C30.8571 21.7302 27.7712 18.6443 24 18.6443ZM36 24.3585H32.5714V26.6443H36V24.3585ZM15.4286 24.3585H12V26.6443H15.4286V24.3585Z" fill="#F38D21"/>
</svg>
