<svg width="1920" height="1080" viewBox="0 0 1920 1080" fill="none" xmlns="http://www.w3.org/2000/svg">
<g clip-path="url(#clip0_34_223)">
<rect width="1920" height="1080" fill="#FF5F5F"/>
<g filter="url(#filter0_d_34_223)">
<path d="M599.752 720.88H662.568V750H559.4V722.96L621.8 633.104H559.4V603.984H662.568V631.024L599.752 720.88ZM729.69 632.48V662.016H777.322V689.472H729.69V721.504H783.562V750H694.122V603.984H783.562V632.48H729.69ZM884.03 751.456C870.302 751.456 857.683 748.267 846.174 741.888C834.803 735.509 825.72 726.635 818.925 715.264C812.269 703.755 808.941 690.859 808.941 676.576C808.941 662.293 812.269 649.467 818.925 638.096C825.72 626.725 834.803 617.851 846.174 611.472C857.683 605.093 870.302 601.904 884.03 601.904C897.758 601.904 910.307 605.093 921.678 611.472C933.187 617.851 942.2 626.725 948.718 638.096C955.374 649.467 958.702 662.293 958.702 676.576C958.702 690.859 955.374 703.755 948.718 715.264C942.062 726.635 933.048 735.509 921.678 741.888C910.307 748.267 897.758 751.456 884.03 751.456ZM884.03 719.008C895.678 719.008 904.968 715.125 911.901 707.36C918.974 699.595 922.51 689.333 922.51 676.576C922.51 663.68 918.974 653.419 911.901 645.792C904.968 638.027 895.678 634.144 884.03 634.144C872.243 634.144 862.814 637.957 855.742 645.584C848.808 653.211 845.342 663.541 845.342 676.576C845.342 689.472 848.808 699.803 855.742 707.568C862.814 715.195 872.243 719.008 884.03 719.008ZM1117.43 750H1081.87L1022.38 659.936V750H986.809V603.984H1022.38L1081.87 694.464V603.984H1117.43V750Z" fill="white"/>
</g>
<path d="M1390.85 451.267C1402.39 442.105 1407.65 437.863 1406.63 438.542C1439.88 411.056 1466.01 388.49 1485.02 370.845C1504.36 353.2 1520.65 334.706 1533.88 315.364C1547.11 296.022 1553.73 277.189 1553.73 258.865C1553.73 244.952 1550.51 234.094 1544.06 226.289C1537.61 218.484 1527.94 214.582 1515.05 214.582C1502.15 214.582 1491.97 219.502 1484.51 229.343C1477.38 238.844 1473.82 252.418 1473.82 270.063H1389.83C1390.51 241.22 1396.62 217.127 1408.16 197.785C1420.03 178.443 1435.47 164.191 1454.48 155.029C1473.82 145.867 1495.2 141.286 1518.61 141.286C1558.99 141.286 1589.36 151.636 1609.72 172.335C1630.42 193.034 1640.77 220.011 1640.77 253.266C1640.77 289.575 1628.38 323.338 1603.61 354.557C1578.84 385.436 1547.28 415.637 1508.94 445.159H1646.37V515.91H1390.85V451.267ZM1684.69 330.125C1684.69 271.76 1695.89 225.78 1718.29 192.186C1741.02 158.592 1777.5 141.795 1827.72 141.795C1877.94 141.795 1914.25 158.592 1936.65 192.186C1959.38 225.78 1970.75 271.76 1970.75 330.125C1970.75 389.169 1959.38 435.488 1936.65 469.082C1914.25 502.676 1877.94 519.473 1827.72 519.473C1777.5 519.473 1741.02 502.676 1718.29 469.082C1695.89 435.488 1684.69 389.169 1684.69 330.125ZM1885.24 330.125C1885.24 295.852 1881.5 269.554 1874.04 251.23C1866.57 232.567 1851.13 223.235 1827.72 223.235C1804.31 223.235 1788.87 232.567 1781.4 251.23C1773.94 269.554 1770.2 295.852 1770.2 330.125C1770.2 353.2 1771.56 372.372 1774.28 387.642C1776.99 402.573 1782.42 414.789 1790.56 424.29C1799.05 433.452 1811.43 438.033 1827.72 438.033C1844.01 438.033 1856.22 433.452 1864.37 424.29C1872.85 414.789 1878.45 402.573 1881.17 387.642C1883.88 372.372 1885.24 353.2 1885.24 330.125ZM1390.85 904.267C1402.39 895.105 1407.65 890.863 1406.63 891.542C1439.88 864.056 1466.01 841.49 1485.02 823.845C1504.36 806.2 1520.65 787.706 1533.88 768.364C1547.11 749.022 1553.73 730.189 1553.73 711.865C1553.73 697.952 1550.51 687.094 1544.06 679.289C1537.61 671.484 1527.94 667.582 1515.05 667.582C1502.15 667.582 1491.97 672.502 1484.51 682.343C1477.38 691.844 1473.82 705.418 1473.82 723.063H1389.83C1390.51 694.22 1396.62 670.127 1408.16 650.785C1420.03 631.443 1435.47 617.191 1454.48 608.029C1473.82 598.867 1495.2 594.286 1518.61 594.286C1558.99 594.286 1589.36 604.636 1609.72 625.335C1630.42 646.034 1640.77 673.011 1640.77 706.266C1640.77 742.575 1628.38 776.338 1603.61 807.557C1578.84 838.436 1547.28 868.637 1508.94 898.159H1646.37V968.91H1390.85V904.267ZM1681.64 904.267C1693.17 895.105 1698.43 890.863 1697.42 891.542C1730.67 864.056 1756.8 841.49 1775.8 823.845C1795.14 806.2 1811.43 787.706 1824.67 768.364C1837.9 749.022 1844.52 730.189 1844.52 711.865C1844.52 697.952 1841.29 687.094 1834.85 679.289C1828.4 671.484 1818.73 667.582 1805.83 667.582C1792.94 667.582 1782.76 672.502 1775.29 682.343C1768.17 691.844 1764.6 705.418 1764.6 723.063H1680.62C1681.3 694.22 1687.41 670.127 1698.94 650.785C1710.82 631.443 1726.26 617.191 1745.26 608.029C1764.6 598.867 1785.98 594.286 1809.4 594.286C1849.78 594.286 1880.15 604.636 1900.51 625.335C1921.21 646.034 1931.56 673.011 1931.56 706.266C1931.56 742.575 1919.17 776.338 1894.4 807.557C1869.63 838.436 1838.07 868.637 1799.73 898.159H1937.16V968.91H1681.64V904.267Z" fill="#FFFAFA" fill-opacity="0.15"/>
<path d="M558.184 787.632C560.659 787.632 562.781 788.08 564.552 788.976C566.323 789.872 567.677 791.163 568.616 792.848C569.555 794.533 570.024 796.539 570.024 798.864C570.024 801.168 569.555 803.163 568.616 804.848C567.677 806.512 566.323 807.792 564.552 808.688C562.781 809.563 560.659 810 558.184 810H551.56V787.632H558.184ZM558.184 808.144C561.299 808.144 563.667 807.333 565.288 805.712C566.931 804.069 567.752 801.787 567.752 798.864C567.752 795.92 566.931 793.627 565.288 791.984C563.667 790.32 561.299 789.488 558.184 789.488H553.8V808.144H558.184ZM582.474 787.632V810H580.234V787.632H582.474ZM611.226 794.16C610.586 792.688 609.605 791.536 608.282 790.704C606.981 789.851 605.445 789.424 603.674 789.424C602.01 789.424 600.517 789.808 599.194 790.576C597.872 791.344 596.826 792.443 596.058 793.872C595.29 795.28 594.906 796.923 594.906 798.8C594.906 800.677 595.29 802.331 596.058 803.76C596.826 805.189 597.872 806.288 599.194 807.056C600.517 807.824 602.01 808.208 603.674 808.208C605.232 808.208 606.629 807.877 607.866 807.216C609.125 806.533 610.128 805.573 610.874 804.336C611.642 803.077 612.08 801.616 612.186 799.952H602.778V798.128H614.554V799.76C614.448 801.723 613.914 803.504 612.954 805.104C611.994 806.683 610.704 807.931 609.082 808.848C607.482 809.765 605.68 810.224 603.674 810.224C601.605 810.224 599.728 809.744 598.042 808.784C596.357 807.803 595.024 806.448 594.042 804.72C593.082 802.971 592.602 800.997 592.602 798.8C592.602 796.603 593.082 794.64 594.042 792.912C595.024 791.163 596.357 789.808 598.042 788.848C599.728 787.867 601.605 787.376 603.674 787.376C606.064 787.376 608.154 787.973 609.946 789.168C611.738 790.363 613.04 792.027 613.85 794.16H611.226ZM626.977 787.632V810H624.737V787.632H626.977ZM651.218 787.632V789.488H645.01V810H642.77V789.488H636.53V787.632H651.218ZM673.795 804.688H663.619L661.667 810H659.299L667.459 787.92H669.987L678.115 810H675.747L673.795 804.688ZM673.123 802.832L668.707 790.736L664.291 802.832H673.123ZM690.03 808.176H698.062V810H687.79V787.632H690.03V808.176ZM744.056 787.92V810H741.816V792.368L733.944 810H732.312L724.44 792.432V810H722.2V787.92H724.568L733.112 807.056L741.656 787.92H744.056ZM768.178 804.688H758.002L756.05 810H753.682L761.842 787.92H764.37L772.498 810H770.13L768.178 804.688ZM767.506 802.832L763.09 790.736L758.674 802.832H767.506ZM794.077 810L788.541 800.656H784.413V810H782.173V787.632H788.893C791.389 787.632 793.277 788.229 794.557 789.424C795.858 790.619 796.509 792.187 796.509 794.128C796.509 795.749 796.039 797.136 795.101 798.288C794.183 799.419 792.818 800.155 791.005 800.496L796.765 810H794.077ZM784.413 798.832H788.925C790.674 798.832 791.986 798.405 792.861 797.552C793.757 796.699 794.205 795.557 794.205 794.128C794.205 792.656 793.778 791.525 792.925 790.736C792.071 789.925 790.727 789.52 788.893 789.52H784.413V798.832ZM818.97 810L809.274 799.664V810H807.034V787.632H809.274V798.096L818.97 787.632H821.818L811.354 798.8L821.914 810H818.97ZM833.541 789.456V797.808H842.021V799.664H833.541V808.144H842.981V810H831.301V787.6H842.981V789.456H833.541ZM866.563 787.632V789.488H860.355V810H858.115V789.488H851.875V787.632H866.563ZM878.42 787.632V810H876.18V787.632H878.42ZM906.437 810H904.197L891.813 791.184V810H889.573V787.632H891.813L904.197 806.416V787.632H906.437V810ZM935.19 794.16C934.55 792.688 933.569 791.536 932.246 790.704C930.945 789.851 929.409 789.424 927.638 789.424C925.974 789.424 924.481 789.808 923.158 790.576C921.835 791.344 920.79 792.443 920.022 793.872C919.254 795.28 918.87 796.923 918.87 798.8C918.87 800.677 919.254 802.331 920.022 803.76C920.79 805.189 921.835 806.288 923.158 807.056C924.481 807.824 925.974 808.208 927.638 808.208C929.195 808.208 930.593 807.877 931.83 807.216C933.089 806.533 934.091 805.573 934.838 804.336C935.606 803.077 936.043 801.616 936.15 799.952H926.742V798.128H938.518V799.76C938.411 801.723 937.878 803.504 936.918 805.104C935.958 806.683 934.667 807.931 933.046 808.848C931.446 809.765 929.643 810.224 927.638 810.224C925.569 810.224 923.691 809.744 922.006 808.784C920.321 807.803 918.987 806.448 918.006 804.72C917.046 802.971 916.566 800.997 916.566 798.8C916.566 796.603 917.046 794.64 918.006 792.912C918.987 791.163 920.321 789.808 922.006 788.848C923.691 787.867 925.569 787.376 927.638 787.376C930.027 787.376 932.118 787.973 933.91 789.168C935.702 790.363 937.003 792.027 937.814 794.16H935.19ZM977.867 794.064C977.867 795.984 977.237 797.531 975.979 798.704C974.72 799.877 972.832 800.464 970.315 800.464H965.803V810H963.563V787.632H970.315C972.811 787.632 974.688 788.219 975.947 789.392C977.227 790.565 977.867 792.123 977.867 794.064ZM970.315 798.544C973.813 798.544 975.563 797.051 975.563 794.064C975.563 792.571 975.147 791.44 974.315 790.672C973.483 789.904 972.149 789.52 970.315 789.52H965.803V798.544H970.315ZM999.609 810L994.073 800.656H989.945V810H987.705V787.632H994.425C996.921 787.632 998.809 788.229 1000.09 789.424C1001.39 790.619 1002.04 792.187 1002.04 794.128C1002.04 795.749 1001.57 797.136 1000.63 798.288C999.716 799.419 998.35 800.155 996.537 800.496L1002.3 810H999.609ZM989.945 798.832H994.457C996.206 798.832 997.518 798.405 998.393 797.552C999.289 796.699 999.737 795.557 999.737 794.128C999.737 792.656 999.31 791.525 998.457 790.736C997.604 789.925 996.26 789.52 994.425 789.52H989.945V798.832ZM1022.61 810.224C1020.54 810.224 1018.67 809.744 1016.98 808.784C1015.3 807.803 1013.96 806.448 1012.98 804.72C1012.02 802.971 1011.54 800.997 1011.54 798.8C1011.54 796.603 1012.02 794.64 1012.98 792.912C1013.96 791.163 1015.3 789.808 1016.98 788.848C1018.67 787.867 1020.54 787.376 1022.61 787.376C1024.7 787.376 1026.59 787.867 1028.28 788.848C1029.96 789.808 1031.29 791.163 1032.25 792.912C1033.21 794.64 1033.69 796.603 1033.69 798.8C1033.69 800.997 1033.21 802.971 1032.25 804.72C1031.29 806.448 1029.96 807.803 1028.28 808.784C1026.59 809.744 1024.7 810.224 1022.61 810.224ZM1022.61 808.272C1024.28 808.272 1025.77 807.888 1027.09 807.12C1028.42 806.352 1029.46 805.253 1030.23 803.824C1031 802.373 1031.38 800.699 1031.38 798.8C1031.38 796.901 1031 795.237 1030.23 793.808C1029.46 792.379 1028.42 791.28 1027.09 790.512C1025.77 789.744 1024.28 789.36 1022.61 789.36C1020.95 789.36 1019.46 789.744 1018.13 790.512C1016.81 791.28 1015.77 792.379 1015 793.808C1014.23 795.237 1013.85 796.901 1013.85 798.8C1013.85 800.699 1014.23 802.373 1015 803.824C1015.77 805.253 1016.81 806.352 1018.13 807.12C1019.46 807.888 1020.95 808.272 1022.61 808.272ZM1054.2 787.632V804.56C1054.2 806.267 1053.68 807.643 1052.63 808.688C1051.59 809.712 1050.19 810.224 1048.44 810.224C1046.63 810.224 1045.18 809.68 1044.09 808.592C1043.02 807.483 1042.49 805.989 1042.49 804.112H1044.76C1044.78 805.328 1045.08 806.32 1045.66 807.088C1046.25 807.856 1047.18 808.24 1048.44 808.24C1049.64 808.24 1050.52 807.888 1051.1 807.184C1051.67 806.48 1051.96 805.605 1051.96 804.56V787.632H1054.2ZM1068.15 789.456V797.808H1076.63V799.664H1068.15V808.144H1077.59V810H1065.91V787.6H1077.59V789.456H1068.15ZM1087.06 798.8C1087.06 796.603 1087.54 794.64 1088.5 792.912C1089.46 791.163 1090.78 789.808 1092.44 788.848C1094.1 787.867 1095.96 787.376 1098.01 787.376C1100.5 787.376 1102.64 787.973 1104.41 789.168C1106.2 790.341 1107.5 792.005 1108.31 794.16H1105.69C1105.05 792.645 1104.07 791.461 1102.74 790.608C1101.44 789.755 1099.86 789.328 1098.01 789.328C1096.36 789.328 1094.88 789.712 1093.56 790.48C1092.26 791.248 1091.23 792.357 1090.49 793.808C1089.74 795.237 1089.37 796.901 1089.37 798.8C1089.37 800.699 1089.74 802.363 1090.49 803.792C1091.23 805.221 1092.26 806.32 1093.56 807.088C1094.88 807.856 1096.36 808.24 1098.01 808.24C1099.86 808.24 1101.44 807.824 1102.74 806.992C1104.07 806.139 1105.05 804.965 1105.69 803.472H1108.31C1107.5 805.605 1106.2 807.259 1104.41 808.432C1102.62 809.605 1100.48 810.192 1098.01 810.192C1095.96 810.192 1094.1 809.712 1092.44 808.752C1090.78 807.771 1089.46 806.416 1088.5 804.688C1087.54 802.96 1087.06 800.997 1087.06 798.8ZM1131.94 787.632V789.488H1125.73V810H1123.49V789.488H1117.25V787.632H1131.94Z" fill="white"/>
<line x1="2.5" y1="860.5" x2="1115.5" y2="860.5" stroke="white" stroke-width="3" stroke-linecap="round"/>
<line y1="-0.5" x2="805" y2="-0.5" transform="matrix(-1 0 0 1 806 117)" stroke="white" stroke-opacity="0.21"/>
<line x1="349" y1="466.5" y2="466.5" stroke="white" stroke-opacity="0.21"/>
<line y1="-0.5" x2="466" y2="-0.5" transform="matrix(-1 0 0 1 466 350)" stroke="white" stroke-opacity="0.21"/>
<line y1="-0.5" x2="805" y2="-0.5" transform="matrix(-1 0 0 1 806 234)" stroke="white" stroke-opacity="0.21"/>
<line y1="-0.5" x2="231" y2="-0.5" transform="matrix(6.06529e-08 1 1 -3.1502e-08 582 0)" stroke="white" stroke-opacity="0.21"/>
<line y1="-0.5" x2="350" y2="-0.5" transform="matrix(6.06529e-08 1 1 -3.1502e-08 349 0)" stroke="white" stroke-opacity="0.21"/>
<line y1="-0.5" x2="350" y2="-0.5" transform="matrix(6.06529e-08 1 1 -3.1502e-08 117 0)" stroke="white" stroke-opacity="0.21"/>
<line x1="698.5" y1="2.18557e-08" x2="698.5" y2="116" stroke="white" stroke-opacity="0.21"/>
<line x1="466.5" y1="2.18557e-08" x2="466.5" y2="234" stroke="white" stroke-opacity="0.21"/>
<line y1="-0.5" x2="350" y2="-0.5" transform="matrix(6.06529e-08 1 1 -3.1502e-08 233 0)" stroke="white" stroke-opacity="0.21"/>
<line y1="-0.5" x2="542" y2="-0.5" transform="matrix(5.96084e-08 1 1 -3.2054e-08 1 0)" stroke="white" stroke-opacity="0.21"/>
<line x1="0.5" y1="-0.5" x2="23.2164" y2="-0.5" transform="matrix(0 1 1 0 581.88 104.287)" stroke="white" stroke-linecap="round"/>
<line x1="0.5" y1="-0.5" x2="23.2164" y2="-0.5" transform="matrix(1 -8.74228e-08 -8.74228e-08 -1 570.021 116.145)" stroke="white" stroke-linecap="round"/>
<line x1="0.5" y1="-0.5" x2="23.2164" y2="-0.5" transform="matrix(0 1 1 0 581.88 452.918)" stroke="white" stroke-linecap="round"/>
<line x1="0.5" y1="-0.5" x2="23.2164" y2="-0.5" transform="matrix(1 -8.74228e-08 -8.74228e-08 -1 570.021 464.777)" stroke="white" stroke-linecap="round"/>
<line x1="0.5" y1="-0.5" x2="23.2164" y2="-0.5" transform="matrix(0 1 1 0 581.88 336.708)" stroke="white" stroke-linecap="round"/>
<line x1="0.5" y1="-0.5" x2="23.2164" y2="-0.5" transform="matrix(1 -8.74228e-08 -8.74228e-08 -1 570.021 348.566)" stroke="white" stroke-linecap="round"/>
<line x1="0.5" y1="-0.5" x2="23.2164" y2="-0.5" transform="matrix(0 1 1 0 581.88 220.498)" stroke="white" stroke-linecap="round"/>
<line x1="0.5" y1="-0.5" x2="23.2164" y2="-0.5" transform="matrix(1 -8.74228e-08 -8.74228e-08 -1 570.021 232.356)" stroke="white" stroke-linecap="round"/>
<line x1="0.5" y1="-0.5" x2="23.2164" y2="-0.5" transform="matrix(0 1 1 0 349.459 104.287)" stroke="white" stroke-linecap="round"/>
<line x1="0.5" y1="-0.5" x2="23.2164" y2="-0.5" transform="matrix(1 -8.74228e-08 -8.74228e-08 -1 337.601 116.145)" stroke="white" stroke-linecap="round"/>
<line x1="0.5" y1="-0.5" x2="23.2164" y2="-0.5" transform="matrix(0 1 1 0 349.459 452.918)" stroke="white" stroke-linecap="round"/>
<line x1="0.5" y1="-0.5" x2="23.2164" y2="-0.5" transform="matrix(1 -8.74228e-08 -8.74228e-08 -1 337.601 464.777)" stroke="white" stroke-linecap="round"/>
<line x1="0.5" y1="-0.5" x2="23.2164" y2="-0.5" transform="matrix(0 1 1 0 349.459 336.708)" stroke="white" stroke-linecap="round"/>
<line x1="0.5" y1="-0.5" x2="23.2164" y2="-0.5" transform="matrix(1 -8.74228e-08 -8.74228e-08 -1 337.601 348.566)" stroke="white" stroke-linecap="round"/>
<line x1="0.5" y1="-0.5" x2="23.2164" y2="-0.5" transform="matrix(0 1 1 0 349.459 220.498)" stroke="white" stroke-linecap="round"/>
<line x1="0.5" y1="-0.5" x2="23.2164" y2="-0.5" transform="matrix(1 -8.74228e-08 -8.74228e-08 -1 337.601 232.356)" stroke="white" stroke-linecap="round"/>
<line x1="0.5" y1="-0.5" x2="23.2164" y2="-0.5" transform="matrix(0 1 1 0 117.038 104.287)" stroke="white" stroke-linecap="round"/>
<line x1="0.5" y1="-0.5" x2="23.2164" y2="-0.5" transform="matrix(1 -8.74228e-08 -8.74228e-08 -1 105.18 116.145)" stroke="white" stroke-linecap="round"/>
<line x1="0.5" y1="-0.5" x2="23.2164" y2="-0.5" transform="matrix(0 1 1 0 117.038 452.918)" stroke="white" stroke-linecap="round"/>
<line x1="0.5" y1="-0.5" x2="23.2164" y2="-0.5" transform="matrix(1 -8.74228e-08 -8.74228e-08 -1 105.18 464.777)" stroke="white" stroke-linecap="round"/>
<line x1="0.5" y1="-0.5" x2="23.2164" y2="-0.5" transform="matrix(0 1 1 0 117.038 336.708)" stroke="white" stroke-linecap="round"/>
<line x1="0.5" y1="-0.5" x2="23.2164" y2="-0.5" transform="matrix(1 -8.74228e-08 -8.74228e-08 -1 105.18 348.566)" stroke="white" stroke-linecap="round"/>
<line x1="0.5" y1="-0.5" x2="23.2164" y2="-0.5" transform="matrix(0 1 1 0 117.038 220.498)" stroke="white" stroke-linecap="round"/>
<line x1="0.5" y1="-0.5" x2="23.2164" y2="-0.5" transform="matrix(1 -8.74228e-08 -8.74228e-08 -1 105.18 232.356)" stroke="white" stroke-linecap="round"/>
<line x1="0.5" y1="-0.5" x2="23.2164" y2="-0.5" transform="matrix(0 1 1 0 698.09 104.287)" stroke="white" stroke-linecap="round"/>
<line x1="0.5" y1="-0.5" x2="23.2164" y2="-0.5" transform="matrix(1 -8.74228e-08 -8.74228e-08 -1 686.232 116.145)" stroke="white" stroke-linecap="round"/>
<line x1="0.5" y1="-0.5" x2="23.2164" y2="-0.5" transform="matrix(0 1 1 0 698.09 452.918)" stroke="white" stroke-linecap="round"/>
<line x1="0.5" y1="-0.5" x2="23.2164" y2="-0.5" transform="matrix(1 -8.74228e-08 -8.74228e-08 -1 686.232 464.777)" stroke="white" stroke-linecap="round"/>
<line x1="0.5" y1="-0.5" x2="23.2164" y2="-0.5" transform="matrix(0 1 1 0 698.09 336.708)" stroke="white" stroke-linecap="round"/>
<line x1="0.5" y1="-0.5" x2="23.2164" y2="-0.5" transform="matrix(1 -8.74228e-08 -8.74228e-08 -1 686.232 348.566)" stroke="white" stroke-linecap="round"/>
<line x1="0.5" y1="-0.5" x2="23.2164" y2="-0.5" transform="matrix(0 1 1 0 698.09 220.498)" stroke="white" stroke-linecap="round"/>
<line x1="0.5" y1="-0.5" x2="23.2164" y2="-0.5" transform="matrix(1 -8.74228e-08 -8.74228e-08 -1 686.232 232.356)" stroke="white" stroke-linecap="round"/>
<line x1="0.5" y1="-0.5" x2="23.2164" y2="-0.5" transform="matrix(0 1 1 0 465.669 104.287)" stroke="white" stroke-linecap="round"/>
<line x1="0.5" y1="-0.5" x2="23.2164" y2="-0.5" transform="matrix(1 -8.74228e-08 -8.74228e-08 -1 453.811 116.145)" stroke="white" stroke-linecap="round"/>
<line x1="0.5" y1="-0.5" x2="23.2164" y2="-0.5" transform="matrix(0 1 1 0 465.669 452.918)" stroke="white" stroke-linecap="round"/>
<line x1="0.5" y1="-0.5" x2="23.2164" y2="-0.5" transform="matrix(1 -8.74228e-08 -8.74228e-08 -1 453.811 464.777)" stroke="white" stroke-linecap="round"/>
<line x1="0.5" y1="-0.5" x2="23.2164" y2="-0.5" transform="matrix(0 1 1 0 465.669 336.708)" stroke="white" stroke-linecap="round"/>
<line x1="0.5" y1="-0.5" x2="23.2164" y2="-0.5" transform="matrix(1 -8.74228e-08 -8.74228e-08 -1 453.811 348.566)" stroke="white" stroke-linecap="round"/>
<line x1="0.5" y1="-0.5" x2="23.2164" y2="-0.5" transform="matrix(0 1 1 0 465.669 220.498)" stroke="white" stroke-linecap="round"/>
<line x1="0.5" y1="-0.5" x2="23.2164" y2="-0.5" transform="matrix(1 -8.74228e-08 -8.74228e-08 -1 453.811 232.356)" stroke="white" stroke-linecap="round"/>
<line x1="0.5" y1="-0.5" x2="23.2164" y2="-0.5" transform="matrix(0 1 1 0 233.248 104.287)" stroke="white" stroke-linecap="round"/>
<line x1="0.5" y1="-0.5" x2="23.2164" y2="-0.5" transform="matrix(1 -8.74228e-08 -8.74228e-08 -1 221.39 116.145)" stroke="white" stroke-linecap="round"/>
<line x1="0.5" y1="-0.5" x2="23.2164" y2="-0.5" transform="matrix(0 1 1 0 233.248 452.918)" stroke="white" stroke-linecap="round"/>
<line x1="0.5" y1="-0.5" x2="23.2164" y2="-0.5" transform="matrix(1 -8.74228e-08 -8.74228e-08 -1 221.39 464.777)" stroke="white" stroke-linecap="round"/>
<line x1="0.5" y1="-0.5" x2="23.2164" y2="-0.5" transform="matrix(0 1 1 0 233.248 336.708)" stroke="white" stroke-linecap="round"/>
<line x1="0.5" y1="-0.5" x2="23.2164" y2="-0.5" transform="matrix(1 -8.74228e-08 -8.74228e-08 -1 221.39 348.566)" stroke="white" stroke-linecap="round"/>
<line x1="0.5" y1="-0.5" x2="23.2164" y2="-0.5" transform="matrix(0 1 1 0 233.248 220.498)" stroke="white" stroke-linecap="round"/>
<line x1="0.5" y1="-0.5" x2="23.2164" y2="-0.5" transform="matrix(1 -8.74228e-08 -8.74228e-08 -1 221.39 232.356)" stroke="white" stroke-linecap="round"/>
</g>
<defs>
<filter id="filter0_d_34_223" x="535.4" y="591.904" width="606.033" height="197.552" filterUnits="userSpaceOnUse" color-interpolation-filters="sRGB">
<feFlood flood-opacity="0" result="BackgroundImageFix"/>
<feColorMatrix in="SourceAlpha" type="matrix" values="0 0 0 0 0 0 0 0 0 0 0 0 0 0 0 0 0 0 127 0" result="hardAlpha"/>
<feOffset dy="14"/>
<feGaussianBlur stdDeviation="12"/>
<feComposite in2="hardAlpha" operator="out"/>
<feColorMatrix type="matrix" values="0 0 0 0 1 0 0 0 0 0.295833 0 0 0 0 0.295833 0 0 0 1 0"/>
<feBlend mode="normal" in2="BackgroundImageFix" result="effect1_dropShadow_34_223"/>
<feBlend mode="normal" in="SourceGraphic" in2="effect1_dropShadow_34_223" result="shape"/>
</filter>
<clipPath id="clip0_34_223">
<rect width="1920" height="1080" fill="white"/>
</clipPath>
</defs>
</svg>
