<svg width="638" height="686" viewBox="0 0 638 686" fill="none" xmlns="http://www.w3.org/2000/svg">
<path d="M354.607 637.943C326.287 663.442 282.659 661.155 257.16 632.836L49.8608 402.607C24.3618 374.287 26.6483 330.659 54.9678 305.16L285.197 97.8608C313.516 72.3619 357.145 74.6483 382.644 102.968L589.943 333.197C615.442 361.516 613.155 405.145 584.836 430.644L354.607 637.943Z" stroke="#BBDEFB" stroke-width="2"/>
<path d="M372.079 595.77C343.76 621.269 300.131 618.983 274.632 590.663L112.033 410.079C86.5343 381.76 88.8208 338.131 117.14 312.632L297.724 150.033C326.044 124.534 369.672 126.821 395.171 155.14L557.77 335.725C583.269 364.044 580.983 407.673 552.663 433.172L372.079 595.77Z" stroke="#BBDEFB" stroke-width="2"/>
<path fill-rule="evenodd" clip-rule="evenodd" d="M375.698 556.23C355.176 574.707 323.562 573.05 305.084 552.529L166.574 398.698C148.096 378.177 149.753 346.562 170.275 328.084L324.106 189.574C344.627 171.097 376.242 172.753 394.719 193.275L533.229 347.106C551.707 367.627 550.05 399.242 529.529 417.72L375.698 556.23Z" fill="#BBDEFB"/>
<path fill-rule="evenodd" clip-rule="evenodd" d="M381.907 506.105C368.774 517.931 348.54 516.871 336.715 503.737L242.367 398.953C230.541 385.82 231.602 365.586 244.736 353.761L355.093 254.395C368.226 242.569 388.46 243.63 400.285 256.763L494.633 361.547C506.458 374.68 505.398 394.914 492.264 406.739L381.907 506.105Z" fill="#2196F3"/>
<path d="M329.996 350.842C329.996 355.801 328.82 359.652 326.467 362.395C324.131 365.137 320.881 366.508 316.717 366.508C312.57 366.508 309.311 365.154 306.941 362.445C304.572 359.72 303.37 355.912 303.336 351.02V344.697C303.336 339.619 304.512 335.658 306.865 332.815C309.218 329.954 312.485 328.523 316.666 328.523C320.779 328.523 324.021 329.928 326.391 332.738C328.76 335.531 329.962 339.458 329.996 344.52V350.842ZM322.506 344.647C322.506 341.312 322.032 338.832 321.084 337.207C320.136 335.582 318.663 334.77 316.666 334.77C314.686 334.77 313.221 335.557 312.273 337.131C311.326 338.688 310.835 341.066 310.801 344.266V350.842C310.801 354.075 311.283 356.462 312.248 358.002C313.213 359.525 314.702 360.287 316.717 360.287C318.663 360.287 320.111 359.542 321.059 358.053C322.007 356.546 322.489 354.219 322.506 351.07V344.647ZM348.506 363.486C347.016 365.501 345.019 366.508 342.514 366.508C339.992 366.508 338.079 365.645 336.775 363.918C335.472 362.175 334.82 359.644 334.82 356.326V338.527H342.006V356.504C342.04 359.178 342.928 360.516 344.672 360.516C346.314 360.516 347.499 359.805 348.227 358.383V338.527H355.463V366H348.709L348.506 363.486ZM374.15 345.459L371.764 345.256C369.8 345.256 368.471 346.119 367.777 347.846V366H360.566V338.527H367.346L367.549 341.498C368.683 339.179 370.249 338.02 372.246 338.02C373.059 338.02 373.719 338.13 374.227 338.35L374.15 345.459ZM316.006 419.844L322.227 393.031H330.555L319.891 430H312.121L301.533 393.031H309.811L316.006 419.844ZM345.561 430C345.357 429.577 345.154 428.866 344.951 427.867C343.665 429.628 341.921 430.508 339.721 430.508C337.419 430.508 335.506 429.746 333.982 428.223C332.476 426.699 331.723 424.727 331.723 422.307C331.723 419.429 332.637 417.203 334.465 415.629C336.31 414.055 338.959 413.251 342.412 413.217H344.596V411.008C344.596 409.772 344.384 408.9 343.961 408.393C343.538 407.885 342.92 407.631 342.107 407.631C340.313 407.631 339.416 408.68 339.416 410.779H332.23C332.23 408.24 333.178 406.15 335.074 404.508C336.987 402.849 339.399 402.02 342.311 402.02C345.324 402.02 347.651 402.807 349.293 404.381C350.952 405.938 351.781 408.173 351.781 411.084V424.008C351.815 426.378 352.154 428.231 352.797 429.568V430H345.561ZM341.32 424.871C342.116 424.871 342.793 424.71 343.352 424.389C343.91 424.067 344.325 423.686 344.596 423.246V417.533H342.869C341.65 417.533 340.686 417.923 339.975 418.701C339.281 419.48 338.934 420.521 338.934 421.824C338.934 423.856 339.729 424.871 341.32 424.871ZM364.527 430H357.316V391H364.527V430ZM383.596 427.486C382.106 429.501 380.109 430.508 377.604 430.508C375.081 430.508 373.169 429.645 371.865 427.918C370.562 426.175 369.91 423.644 369.91 420.326V402.527H377.096V420.504C377.13 423.178 378.018 424.516 379.762 424.516C381.404 424.516 382.589 423.805 383.316 422.383V402.527H390.553V430H383.799L383.596 427.486ZM406.777 430.508C403.087 430.508 400.21 429.408 398.145 427.207C396.079 425.007 395.047 421.858 395.047 417.762V415.578C395.047 411.245 395.995 407.902 397.891 405.549C399.786 403.196 402.503 402.02 406.041 402.02C409.494 402.02 412.092 403.128 413.836 405.346C415.579 407.546 416.468 410.813 416.502 415.147V418.676H402.207C402.309 420.707 402.757 422.197 403.553 423.145C404.348 424.076 405.576 424.541 407.234 424.541C409.638 424.541 411.644 423.72 413.252 422.078L416.07 426.42C415.19 427.639 413.912 428.629 412.236 429.391C410.561 430.135 408.741 430.508 406.777 430.508ZM402.258 413.648H409.443V412.988C409.41 411.346 409.139 410.102 408.631 409.256C408.123 408.41 407.243 407.986 405.99 407.986C404.738 407.986 403.824 408.435 403.248 409.332C402.689 410.229 402.359 411.668 402.258 413.648ZM432.727 422.637C432.727 422.027 432.43 421.469 431.838 420.961C431.262 420.436 429.967 419.734 427.953 418.854C424.991 417.652 422.951 416.408 421.834 415.121C420.734 413.835 420.184 412.235 420.184 410.322C420.184 407.919 421.047 405.938 422.773 404.381C424.517 402.807 426.819 402.02 429.68 402.02C432.693 402.02 435.105 402.798 436.916 404.356C438.727 405.913 439.633 408.003 439.633 410.627H432.447C432.447 408.393 431.516 407.275 429.654 407.275C428.893 407.275 428.266 407.512 427.775 407.986C427.285 408.46 427.039 409.121 427.039 409.967C427.039 410.576 427.31 411.118 427.852 411.592C428.393 412.049 429.671 412.709 431.686 413.572C434.614 414.656 436.679 415.866 437.881 417.203C439.1 418.523 439.709 420.242 439.709 422.357C439.709 424.812 438.786 426.784 436.941 428.273C435.096 429.763 432.676 430.508 429.68 430.508C427.665 430.508 425.888 430.119 424.348 429.34C422.807 428.544 421.597 427.444 420.717 426.039C419.854 424.634 419.422 423.119 419.422 421.494H426.252C426.286 422.747 426.574 423.686 427.115 424.313C427.674 424.939 428.579 425.252 429.832 425.252C431.762 425.252 432.727 424.38 432.727 422.637Z" fill="white"/>
<g filter="url(#filter0_d_1_745)">
<ellipse cx="175.5" cy="444.25" rx="31" ry="30.75" fill="#00BCD4"/>
<path d="M204.5 444.25C204.5 460.113 191.532 473 175.5 473C159.468 473 146.5 460.113 146.5 444.25C146.5 428.387 159.468 415.5 175.5 415.5C191.532 415.5 204.5 428.387 204.5 444.25Z" stroke="white" stroke-width="4"/>
</g>
<ellipse cx="175.5" cy="444.212" rx="4.85714" ry="4.88474" fill="white"/>
<path fill-rule="evenodd" clip-rule="evenodd" d="M167 444.212C167 441.396 168.408 438.93 170.515 437.569L168.759 435.698C168.284 436.05 167.834 436.449 167.417 436.894C165.582 438.849 164.572 441.448 164.572 444.212C164.572 446.976 165.582 449.575 167.417 451.53C167.834 451.975 168.284 452.374 168.759 452.725L170.515 450.855C168.408 449.494 167 447.028 167 444.212Z" fill="white"/>
<path fill-rule="evenodd" clip-rule="evenodd" d="M184 444.212C184 447.028 182.592 449.494 180.485 450.855L182.241 452.725C182.717 452.374 183.166 451.975 183.584 451.53C185.418 449.575 186.429 446.976 186.429 444.212C186.429 441.448 185.418 438.849 183.583 436.894C183.166 436.449 182.716 436.05 182.241 435.698L180.485 437.569C182.592 438.93 184 441.396 184 444.212Z" fill="white"/>
<path fill-rule="evenodd" clip-rule="evenodd" d="M160.929 444.212C160.929 439.97 162.845 436.205 165.806 433.846L164.073 432C163.618 432.382 163.182 432.794 162.768 433.235C161.431 434.66 160.38 436.32 159.646 438.168C158.886 440.084 158.5 442.117 158.5 444.212C158.5 446.306 158.886 448.34 159.646 450.255C160.38 452.104 161.431 453.764 162.768 455.189C163.182 455.63 163.618 456.042 164.073 456.424L165.806 454.578C162.845 452.219 160.929 448.454 160.929 444.212Z" fill="white"/>
<path fill-rule="evenodd" clip-rule="evenodd" d="M190.071 444.212C190.071 448.454 188.155 452.219 185.194 454.578L186.927 456.398C187.382 456.016 187.818 455.63 188.232 455.189C189.569 453.764 190.62 452.104 191.354 450.255C192.114 448.34 192.5 446.306 192.5 444.212C192.5 442.117 192.114 440.084 191.354 438.168C190.62 436.32 189.569 434.66 188.232 433.235C187.818 432.794 187.382 432.382 186.927 432L185.194 433.846C188.155 436.205 190.071 439.97 190.071 444.212Z" fill="white"/>
<g filter="url(#filter1_d_1_745)">
<ellipse cx="81" cy="517.75" rx="23" ry="22.75" fill="#A36AF2"/>
<path d="M102 517.75C102 529.189 92.6186 538.5 81 538.5C69.3814 538.5 60 529.189 60 517.75C60 506.311 69.3814 497 81 497C92.6186 497 102 506.311 102 517.75Z" stroke="white" stroke-width="4"/>
</g>
<path fill-rule="evenodd" clip-rule="evenodd" d="M79.2142 512.643C79.2142 513.631 80.0122 514.429 80.9999 514.429C81.9877 514.429 82.7856 513.631 82.7856 512.643V507.286C82.7856 506.298 81.9877 505.5 80.9999 505.5C80.0122 505.5 79.2142 506.298 79.2142 507.286V512.643Z" fill="white"/>
<path fill-rule="evenodd" clip-rule="evenodd" d="M80.9999 521.571C81.9877 521.571 82.7856 522.369 82.7856 523.357V528.714C82.7856 529.702 81.9877 530.5 80.9999 530.5C80.0122 530.5 79.2142 529.702 79.2142 528.714V523.357C79.2142 522.369 80.0122 521.571 80.9999 521.571Z" fill="white"/>
<path fill-rule="evenodd" clip-rule="evenodd" d="M70.2856 516.214H75.6428C76.6305 516.214 77.4285 517.012 77.4285 518C77.4285 518.988 76.6305 519.786 75.6428 519.786H70.2856C69.2979 519.786 68.4999 518.988 68.4999 518C68.4999 517.012 69.2979 516.214 70.2856 516.214Z" fill="white"/>
<path fill-rule="evenodd" clip-rule="evenodd" d="M86.3571 516.214H91.7143C92.702 516.214 93.5 517.012 93.5 518C93.5 518.988 92.702 519.786 91.7143 519.786H86.3571C85.3694 519.786 84.5714 518.988 84.5714 518C84.5714 517.012 85.3694 516.214 86.3571 516.214Z" fill="white"/>
<path fill-rule="evenodd" clip-rule="evenodd" d="M75.9497 515.472C76.6472 516.17 77.78 516.17 78.4776 515.472C79.1751 514.775 79.1751 513.642 78.4776 512.944L74.6885 509.155C73.991 508.458 72.8582 508.458 72.1606 509.155C71.4631 509.853 71.4631 510.986 72.1606 511.683L75.9497 515.472Z" fill="white"/>
<path fill-rule="evenodd" clip-rule="evenodd" d="M83.5278 520.528C84.2253 519.83 85.3582 519.83 86.0557 520.528L89.8448 524.317C90.5423 525.015 90.5423 526.147 89.8448 526.845C89.1472 527.542 88.0144 527.542 87.3169 526.845L83.5278 523.056C82.8303 522.353 82.8303 521.226 83.5278 520.528Z" fill="white"/>
<path fill-rule="evenodd" clip-rule="evenodd" d="M72.1606 524.311L75.9497 520.522C76.6472 519.825 77.78 519.825 78.4776 520.522C79.1751 521.22 79.1751 522.353 78.4776 523.05L74.6885 526.839C73.991 527.537 72.8582 527.537 72.1606 526.839C71.4631 526.142 71.4631 525.009 72.1606 524.311Z" fill="white"/>
<path fill-rule="evenodd" clip-rule="evenodd" d="M83.5278 512.95L87.3169 509.161C88.0144 508.463 89.1472 508.463 89.8448 509.161C90.5423 509.858 90.5423 510.991 89.8448 511.689L86.0557 515.478C85.3582 516.175 84.2253 516.175 83.5278 515.478C82.8303 514.78 82.8303 513.647 83.5278 512.95Z" fill="white"/>
<g filter="url(#filter2_d_1_745)">
<ellipse cx="549.5" cy="306.25" rx="23" ry="22.75" fill="#2196F3"/>
<path d="M570.5 306.25C570.5 317.689 561.119 327 549.5 327C537.881 327 528.5 317.689 528.5 306.25C528.5 294.811 537.881 285.5 549.5 285.5C561.119 285.5 570.5 294.811 570.5 306.25Z" stroke="white" stroke-width="4"/>
</g>
<path fill-rule="evenodd" clip-rule="evenodd" d="M549.5 313.793L541.775 318.5L543.819 309.621L537 303.651L545.989 302.871L549.5 294.5L553.011 302.871L562 303.651L555.181 309.621L557.225 318.5L549.5 313.793Z" fill="white"/>
<g filter="url(#filter3_d_1_745)">
<ellipse cx="479.5" cy="223.75" rx="16" ry="15.75" fill="#651FFF"/>
<path d="M493.5 223.75C493.5 231.314 487.262 237.5 479.5 237.5C471.738 237.5 465.5 231.314 465.5 223.75C465.5 216.186 471.738 210 479.5 210C487.262 210 493.5 216.186 493.5 223.75Z" stroke="white" stroke-width="4"/>
</g>
<path fill-rule="evenodd" clip-rule="evenodd" d="M473 221.944C473 221.516 473.217 221.119 473.588 220.905L479.5 218L485.412 220.905C485.752 221.119 486 221.516 486 221.944V227.778C486 228.45 485.443 229 484.762 229H474.238C473.557 229 473 228.45 473 227.778V221.944ZM479.5 224.875L484.473 221.667L479.5 219.222L474.527 221.667L479.5 224.875Z" fill="white"/>
<g filter="url(#filter4_d_1_745)">
<ellipse cx="463.5" cy="526.75" rx="52" ry="51.75" fill="#651FFF"/>
<path d="M513.5 526.75C513.5 554.217 491.123 576.5 463.5 576.5C435.877 576.5 413.5 554.217 413.5 526.75C413.5 499.283 435.877 477 463.5 477C491.123 477 513.5 499.283 513.5 526.75Z" stroke="white" stroke-width="4"/>
</g>
<path fill-rule="evenodd" clip-rule="evenodd" d="M471.281 524.125C471.158 524.074 471.035 524.022 470.922 523.951C470.203 523.54 469.669 522.831 469.494 521.979L467.594 509.894L467.573 509.298C467.573 508.569 467.994 508.251 468.6 507.963C468.672 507.933 468.744 507.902 468.816 507.871C469.556 507.522 470.059 507.07 470.059 506.197C470.059 504.134 469.391 504 468.189 504H458.811C457.609 504 456.941 504.123 456.941 506.197C456.941 507.07 457.444 507.522 458.184 507.871C458.256 507.902 458.328 507.922 458.4 507.963C459.006 508.261 459.427 508.58 459.427 509.298L459.406 509.894L457.506 521.979C457.331 522.831 456.797 523.54 456.078 523.951C455.965 524.022 455.842 524.074 455.719 524.125C453.695 525.172 452 527.288 452 529.742C452 531.374 452.36 531.929 453.561 531.929H461.851L463.084 550H463.906L465.138 531.929H473.439C474.64 531.929 475 531.446 475 529.742C475 527.288 473.305 525.172 471.281 524.125Z" fill="white"/>
<g filter="url(#filter5_d_1_745)">
<circle cx="340.25" cy="100.75" r="45.75" fill="#00BCD4"/>
<circle cx="340.25" cy="100.75" r="43.75" stroke="white" stroke-width="4"/>
</g>
<path fill-rule="evenodd" clip-rule="evenodd" d="M362.705 91.1184C362.705 87.0756 359.763 83.8235 356.128 83.8235C351.204 83.5899 346.182 83.5001 341.054 83.5001C340.787 83.5001 340.52 83.5001 340.254 83.5001C339.987 83.5001 339.72 83.5001 339.454 83.5001C334.334 83.5001 329.304 83.5899 324.38 83.8235C320.754 83.8235 317.812 87.0936 317.812 91.1364C317.589 94.3346 317.492 97.5329 317.501 100.731C317.492 103.929 317.589 107.128 317.803 110.335C317.803 114.378 320.745 117.657 324.371 117.657C329.544 117.899 334.85 118.007 340.245 117.998C345.649 118.016 350.937 117.908 356.119 117.657C359.754 117.657 362.696 114.378 362.696 110.335C362.909 107.128 363.007 103.929 362.998 100.722C363.016 97.5239 362.918 94.3256 362.705 91.1184ZM335.899 109.544V91.891L348.786 100.713L335.899 109.544Z" fill="white"/>
<g filter="url(#filter6_d_1_745)">
<ellipse cx="133" cy="187.75" rx="52" ry="51.75" fill="#2196F3"/>
<path d="M183 187.75C183 215.217 160.623 237.5 133 237.5C105.377 237.5 83 215.217 83 187.75C83 160.283 105.377 138 133 138C160.623 138 183 160.283 183 187.75Z" stroke="white" stroke-width="4"/>
</g>
<path fill-rule="evenodd" clip-rule="evenodd" d="M158.154 169.331H148.418L142.591 163.466C142.591 163.466 142.562 163.438 142.548 163.438L142.519 163.409C141.654 162.546 140.486 162 139.159 162H127.043C125.63 162 124.375 162.604 123.495 163.567V163.581L117.798 169.331H107.846C105.163 169.331 103 171.43 103 174.104V203.156C103 205.829 105.163 208 107.846 208H158.154C160.822 208 163 205.829 163 203.156V174.104C163 171.43 160.822 169.331 158.154 169.331ZM133 200.741C125.659 200.741 119.673 194.761 119.673 187.429C119.673 180.084 125.659 174.118 133 174.118C140.356 174.118 146.327 180.084 146.327 187.429C146.327 194.761 140.356 200.741 133 200.741ZM157.245 177.022C156.135 177.022 155.226 176.116 155.226 174.995C155.226 173.874 156.135 172.968 157.245 172.968C158.356 172.968 159.264 173.874 159.264 174.995C159.264 176.116 158.356 177.022 157.245 177.022Z" fill="white"/>
<path fill-rule="evenodd" clip-rule="evenodd" d="M133 177.367C127.433 177.367 122.933 181.866 122.933 187.429C122.933 192.978 127.433 197.492 133 197.492C138.553 197.492 143.067 192.993 143.067 187.429C143.067 181.866 138.553 177.367 133 177.367Z" fill="white"/>
<defs>
<filter id="filter0_d_1_745" x="86.5" y="358.5" width="178" height="177.5" filterUnits="userSpaceOnUse" color-interpolation-filters="sRGB">
<feFlood flood-opacity="0" result="BackgroundImageFix"/>
<feColorMatrix in="SourceAlpha" type="matrix" values="0 0 0 0 0 0 0 0 0 0 0 0 0 0 0 0 0 0 127 0" result="hardAlpha"/>
<feMorphology radius="9" operator="dilate" in="SourceAlpha" result="effect1_dropShadow_1_745"/>
<feOffset dy="3"/>
<feGaussianBlur stdDeviation="24.5"/>
<feColorMatrix type="matrix" values="0 0 0 0 0 0 0 0 0 0 0 0 0 0 0 0 0 0 0.06 0"/>
<feBlend mode="normal" in2="BackgroundImageFix" result="effect1_dropShadow_1_745"/>
<feBlend mode="normal" in="SourceGraphic" in2="effect1_dropShadow_1_745" result="shape"/>
</filter>
<filter id="filter1_d_1_745" x="0" y="440" width="162" height="161.5" filterUnits="userSpaceOnUse" color-interpolation-filters="sRGB">
<feFlood flood-opacity="0" result="BackgroundImageFix"/>
<feColorMatrix in="SourceAlpha" type="matrix" values="0 0 0 0 0 0 0 0 0 0 0 0 0 0 0 0 0 0 127 0" result="hardAlpha"/>
<feMorphology radius="9" operator="dilate" in="SourceAlpha" result="effect1_dropShadow_1_745"/>
<feOffset dy="3"/>
<feGaussianBlur stdDeviation="24.5"/>
<feColorMatrix type="matrix" values="0 0 0 0 0 0 0 0 0 0 0 0 0 0 0 0 0 0 0.06 0"/>
<feBlend mode="normal" in2="BackgroundImageFix" result="effect1_dropShadow_1_745"/>
<feBlend mode="normal" in="SourceGraphic" in2="effect1_dropShadow_1_745" result="shape"/>
</filter>
<filter id="filter2_d_1_745" x="468.5" y="228.5" width="162" height="161.5" filterUnits="userSpaceOnUse" color-interpolation-filters="sRGB">
<feFlood flood-opacity="0" result="BackgroundImageFix"/>
<feColorMatrix in="SourceAlpha" type="matrix" values="0 0 0 0 0 0 0 0 0 0 0 0 0 0 0 0 0 0 127 0" result="hardAlpha"/>
<feMorphology radius="9" operator="dilate" in="SourceAlpha" result="effect1_dropShadow_1_745"/>
<feOffset dy="3"/>
<feGaussianBlur stdDeviation="24.5"/>
<feColorMatrix type="matrix" values="0 0 0 0 0 0 0 0 0 0 0 0 0 0 0 0 0 0 0.06 0"/>
<feBlend mode="normal" in2="BackgroundImageFix" result="effect1_dropShadow_1_745"/>
<feBlend mode="normal" in="SourceGraphic" in2="effect1_dropShadow_1_745" result="shape"/>
</filter>
<filter id="filter3_d_1_745" x="405.5" y="153" width="148" height="147.5" filterUnits="userSpaceOnUse" color-interpolation-filters="sRGB">
<feFlood flood-opacity="0" result="BackgroundImageFix"/>
<feColorMatrix in="SourceAlpha" type="matrix" values="0 0 0 0 0 0 0 0 0 0 0 0 0 0 0 0 0 0 127 0" result="hardAlpha"/>
<feMorphology radius="9" operator="dilate" in="SourceAlpha" result="effect1_dropShadow_1_745"/>
<feOffset dy="3"/>
<feGaussianBlur stdDeviation="24.5"/>
<feColorMatrix type="matrix" values="0 0 0 0 0 0 0 0 0 0 0 0 0 0 0 0 0 0 0.06 0"/>
<feBlend mode="normal" in2="BackgroundImageFix" result="effect1_dropShadow_1_745"/>
<feBlend mode="normal" in="SourceGraphic" in2="effect1_dropShadow_1_745" result="shape"/>
</filter>
<filter id="filter4_d_1_745" x="353.5" y="420" width="220" height="219.5" filterUnits="userSpaceOnUse" color-interpolation-filters="sRGB">
<feFlood flood-opacity="0" result="BackgroundImageFix"/>
<feColorMatrix in="SourceAlpha" type="matrix" values="0 0 0 0 0 0 0 0 0 0 0 0 0 0 0 0 0 0 127 0" result="hardAlpha"/>
<feMorphology radius="9" operator="dilate" in="SourceAlpha" result="effect1_dropShadow_1_745"/>
<feOffset dy="3"/>
<feGaussianBlur stdDeviation="24.5"/>
<feColorMatrix type="matrix" values="0 0 0 0 0 0 0 0 0 0 0 0 0 0 0 0 0 0 0.06 0"/>
<feBlend mode="normal" in2="BackgroundImageFix" result="effect1_dropShadow_1_745"/>
<feBlend mode="normal" in="SourceGraphic" in2="effect1_dropShadow_1_745" result="shape"/>
</filter>
<filter id="filter5_d_1_745" x="236.5" y="6.10352e-05" width="207.5" height="207.5" filterUnits="userSpaceOnUse" color-interpolation-filters="sRGB">
<feFlood flood-opacity="0" result="BackgroundImageFix"/>
<feColorMatrix in="SourceAlpha" type="matrix" values="0 0 0 0 0 0 0 0 0 0 0 0 0 0 0 0 0 0 127 0" result="hardAlpha"/>
<feMorphology radius="9" operator="dilate" in="SourceAlpha" result="effect1_dropShadow_1_745"/>
<feOffset dy="3"/>
<feGaussianBlur stdDeviation="24.5"/>
<feColorMatrix type="matrix" values="0 0 0 0 0 0 0 0 0 0 0 0 0 0 0 0 0 0 0.06 0"/>
<feBlend mode="normal" in2="BackgroundImageFix" result="effect1_dropShadow_1_745"/>
<feBlend mode="normal" in="SourceGraphic" in2="effect1_dropShadow_1_745" result="shape"/>
</filter>
<filter id="filter6_d_1_745" x="23" y="81.0001" width="220" height="219.5" filterUnits="userSpaceOnUse" color-interpolation-filters="sRGB">
<feFlood flood-opacity="0" result="BackgroundImageFix"/>
<feColorMatrix in="SourceAlpha" type="matrix" values="0 0 0 0 0 0 0 0 0 0 0 0 0 0 0 0 0 0 127 0" result="hardAlpha"/>
<feMorphology radius="9" operator="dilate" in="SourceAlpha" result="effect1_dropShadow_1_745"/>
<feOffset dy="3"/>
<feGaussianBlur stdDeviation="24.5"/>
<feColorMatrix type="matrix" values="0 0 0 0 0 0 0 0 0 0 0 0 0 0 0 0 0 0 0.06 0"/>
<feBlend mode="normal" in2="BackgroundImageFix" result="effect1_dropShadow_1_745"/>
<feBlend mode="normal" in="SourceGraphic" in2="effect1_dropShadow_1_745" result="shape"/>
</filter>
</defs>
</svg>
