<svg width="49" height="49" viewBox="0 0 49 49" fill="none" xmlns="http://www.w3.org/2000/svg">
<rect x="24.0417" y="0.916809" width="34" height="34" rx="6" transform="rotate(45 24.0417 0.916809)" fill="#EDE7F6"/>
<path fill-rule="evenodd" clip-rule="evenodd" d="M28.6769 24.5108L24.1656 27.9424C24.1014 27.9371 24.0373 27.9317 23.9732 27.9317C23.0271 27.9317 22.2627 28.6961 22.2627 29.6422C22.2627 30.5883 23.0271 31.3526 23.9732 31.3526C24.9193 31.3526 25.6836 30.5883 25.6836 29.6422C25.6836 29.578 25.6783 29.5139 25.6729 29.4498L29.1046 24.9384L28.6769 24.5108Z" fill="#651FFF"/>
<path fill-rule="evenodd" clip-rule="evenodd" d="M23.9733 15.9584C17.3612 15.9584 12 21.3197 12 27.9317C12 29.7705 12.4169 31.5077 13.1546 33.0631H15.0842C14.261 31.6413 13.7906 30.0377 13.7212 28.3593H15.4209V27.5041H13.7212C13.7853 25.9647 14.1862 24.4841 14.8864 23.1531L16.3563 24.003L16.784 23.26L15.314 22.4155C15.7096 21.7954 16.18 21.2074 16.7145 20.6729C17.2597 20.133 17.853 19.6573 18.4837 19.2564L19.3283 20.7157L20.0713 20.2881L19.2267 18.8288C20.5523 18.1339 22.0169 17.7437 23.5457 17.6796V19.3794H24.4009V17.6796C25.9296 17.7437 27.3942 18.1393 28.7198 18.8288L27.8806 20.2881L28.6236 20.7157L29.4682 19.2564C30.0989 19.6573 30.6922 20.133 31.2374 20.6729C31.7719 21.2074 32.237 21.7901 32.6379 22.4155L31.1733 23.26L31.6009 24.003L33.0708 23.1531C33.771 24.4841 34.1719 25.9647 34.2361 27.5041H32.5256V28.3593H34.2254C34.1559 30.0377 33.6855 31.6413 32.8624 33.0631H34.792C35.5296 31.5077 35.9465 29.7705 35.9465 27.9317C35.9465 21.3197 30.5853 15.9584 23.9733 15.9584Z" fill="#651FFF"/>
</svg>
