<svg width="49" height="50" viewBox="0 0 49 50" fill="none" xmlns="http://www.w3.org/2000/svg">
<rect x="24.0417" y="0.958435" width="34" height="34" rx="6" transform="rotate(45 24.0417 0.958435)" fill="#B2EBF2"/>
<path fill-rule="evenodd" clip-rule="evenodd" d="M24 20.6727C21.6426 20.6727 19.7142 22.6013 19.7142 24.9584C19.7142 27.3158 21.6426 29.2441 24 29.2441C26.3574 29.2441 28.2857 27.3158 28.2857 24.9584C28.2857 22.6013 26.3574 20.6727 24 20.6727ZM34.2288 23.8156C33.7143 19.0729 29.8856 15.2442 25.1428 14.7299V12.9584H22.8572V14.7299C18.1144 15.2441 14.2857 19.0728 13.7712 23.8155H12V26.1013H13.7712C14.2857 30.844 18.1143 34.6727 22.8571 35.1872V36.9584H25.1428V35.1873C29.8855 34.6728 33.7142 30.8441 34.2288 26.1013H36V23.8156H34.2288ZM24 32.9584C19.5998 32.9584 16 29.3585 16 24.9584C16 20.5583 19.5998 16.9585 24 16.9585C28.4001 16.9585 31.9999 20.5583 31.9999 24.9584C31.9999 29.3585 28.4001 32.9584 24 32.9584Z" fill="#00BCD4"/>
</svg>
